<svg xmlns="http://www.w3.org/2000/svg" viewBox="0 0 512 512" fill="#0d9488">
  <path d="M256 0C114.6 0 0 114.6 0 256s114.6 256 256 256s256-114.6 256-256S397.4 0 256 0zM256 464c-114.7 0-208-93.3-208-208S141.3 48 256 48s208 93.3 208 208S370.7 464 256 464z"/>
  <path d="M256 128c-17.67 0-32 14.33-32 32v128c0 17.67 14.33 32 32 32s32-14.33 32-32V160C288 142.3 273.7 128 256 128zM256 0c-11.36 0-22.9 1.061-34.25 3.13C238.6 4.686 247.1 8.001 256 8.001c132.3 0 240 107.7 240 240c0 8.936-3.314 17.39-6.87 34.25C503.1 280.9 512 269.4 512 256C512 114.6 397.4 0 256 0z"/>
  <circle cx="256" cy="352" r="32" fill="#0d9488"/>
</svg>